<svg viewBox="0 0 64 64" xmlns="http://www.w3.org/2000/svg"><path d="m50.7 44.7-7-7a18.4 18.4 0 0 1 -5.39-13v-11.45h-12.62v11.44a18.4 18.4 0 0 1 -5.39 13l-7 7a6.62 6.62 0 0 0 4.7 11.31h28a6.62 6.62 0 0 0 4.7-11.3z" fill="#dfe8f4"/><path d="m46.79 44.7-7-7a18.36 18.36 0 0 1 -5.39-13v-11.45h-8.71v11.44a18.4 18.4 0 0 1 -5.39 13l-7 7a6.62 6.62 0 0 0 4.7 11.31h24.11a6.62 6.62 0 0 0 4.68-11.3z" fill="#ccd8e5"/><rect fill="#dfe8f4" height="5.25" rx="1.97" width="17.37" x="23.31" y="8"/><path d="m50.7 44.7-5.44-5.44a3.37 3.37 0 0 0 -.6.23 12 12 0 0 1 -11.06 0 3.42 3.42 0 0 0 -3.2 0 12 12 0 0 1 -11.06 0 3.37 3.37 0 0 0 -.6-.23l-5.44 5.44a6.62 6.62 0 0 0 4.7 11.3h28a6.62 6.62 0 0 0 4.7-11.3z" fill="#0795ff"/><path d="m46.79 44.7-4.34-4.34a11.81 11.81 0 0 1 -8.85-.86 3.42 3.42 0 0 0 -3.2 0 12 12 0 0 1 -11.06 0 3.37 3.37 0 0 0 -.6-.23l-5.44 5.43a6.66 6.66 0 0 0 -1.62 2.59 6.45 6.45 0 0 0 -.28 2.82 6.75 6.75 0 0 0 2 4.11 5.3 5.3 0 0 0 .73.6 6.45 6.45 0 0 0 1.74.87 6.89 6.89 0 0 0 2.13.31h24.11a6.62 6.62 0 0 0 4.68-11.3z" fill="#156cdd"/><g fill="#fff"><path d="m28.8 16.69h1.84v1.47h-1.84z"/><path d="m28.8 19.89h3.69v1.47h-3.69z"/><path d="m28.8 22.95h1.84v1.47h-1.84z"/><path d="m28.8 26.15h3.69v1.47h-3.69z"/><path d="m28.8 29.22h1.84v1.47h-1.84z"/><path d="m28.8 32.42h3.69v1.47h-3.69z"/><path d="m28.8 35.48h1.84v1.47h-1.84z"/></g><path d="m25.69 13.25h12.62v1.41h-12.62z" fill="#ccd8e5"/></svg>